<svg xmlns="http://www.w3.org/2000/svg" xmlns:xlink="http://www.w3.org/1999/xlink" width="500" zoomAndPan="magnify" viewBox="0 0 375 374.999991" height="500" preserveAspectRatio="xMidYMid meet" version="1.0"><defs><g/><clipPath id="6f03b4b20a"><path d="M 43.554688 43.554688 L 331.445312 43.554688 L 331.445312 331.445312 L 43.554688 331.445312 Z M 43.554688 43.554688 " clip-rule="nonzero"/></clipPath><clipPath id="b654ade916"><path d="M 187.5 43.554688 C 108 43.554688 43.554688 108 43.554688 187.5 C 43.554688 267 108 331.445312 187.5 331.445312 C 267 331.445312 331.445312 267 331.445312 187.5 C 331.445312 108 267 43.554688 187.5 43.554688 Z M 187.5 43.554688 " clip-rule="nonzero"/></clipPath><clipPath id="37ccca4659"><path d="M 54.335938 173.246094 L 82.835938 173.246094 L 82.835938 201.746094 L 54.335938 201.746094 Z M 54.335938 173.246094 " clip-rule="nonzero"/></clipPath><clipPath id="45a0e81301"><path d="M 292.394531 173.246094 L 320.894531 173.246094 L 320.894531 201.746094 L 292.394531 201.746094 Z M 292.394531 173.246094 " clip-rule="nonzero"/></clipPath><clipPath id="f4d0cca35c"><path d="M 145 102.304688 L 249 102.304688 L 249 193 L 145 193 Z M 145 102.304688 " clip-rule="nonzero"/></clipPath><clipPath id="a606bc035a"><path d="M 199 158 L 270.101562 158 L 270.101562 272.554688 L 199 272.554688 Z M 199 158 " clip-rule="nonzero"/></clipPath></defs><g clip-path="url(#6f03b4b20a)"><g clip-path="url(#b654ade916)"><path fill="#ffde59" d="M 43.554688 43.554688 L 331.445312 43.554688 L 331.445312 331.445312 L 43.554688 331.445312 Z M 43.554688 43.554688 " fill-opacity="1" fill-rule="nonzero"/></g></g><g clip-path="url(#37ccca4659)"><path fill="#ffffff" d="M 68.585938 175.4375 C 75.230469 175.4375 80.640625 180.847656 80.640625 187.496094 C 80.640625 194.144531 75.230469 199.550781 68.585938 199.550781 C 61.9375 199.550781 56.527344 194.144531 56.527344 187.496094 C 56.527344 180.847656 61.9375 175.4375 68.585938 175.4375 M 68.585938 173.246094 C 60.714844 173.246094 54.335938 179.625 54.335938 187.496094 C 54.335938 195.363281 60.714844 201.746094 68.585938 201.746094 C 76.453125 201.746094 82.835938 195.363281 82.835938 187.496094 C 82.835938 179.625 76.453125 173.246094 68.585938 173.246094 Z M 68.585938 173.246094 " fill-opacity="1" fill-rule="nonzero"/></g><path fill="#ffffff" d="M 68.585938 176.753906 C 62.652344 176.753906 57.84375 181.5625 57.84375 187.496094 C 57.84375 193.425781 62.652344 198.234375 68.585938 198.234375 C 74.515625 198.234375 79.324219 193.425781 79.324219 187.496094 C 79.324219 181.5625 74.515625 176.753906 68.585938 176.753906 Z M 65.296875 192.976562 C 64.085938 192.976562 63.101562 191.992188 63.101562 190.78125 C 63.101562 189.574219 64.085938 188.589844 65.296875 188.589844 C 66.507812 188.589844 67.488281 189.574219 67.488281 190.78125 C 67.488281 191.992188 66.507812 192.976562 65.296875 192.976562 Z M 65.296875 186.398438 C 64.085938 186.398438 63.101562 185.417969 63.101562 184.207031 C 63.101562 182.996094 64.085938 182.015625 65.296875 182.015625 C 66.507812 182.015625 67.488281 182.996094 67.488281 184.207031 C 67.488281 185.417969 66.507812 186.398438 65.296875 186.398438 Z M 71.871094 192.976562 C 70.664062 192.976562 69.679688 191.992188 69.679688 190.78125 C 69.679688 189.574219 70.664062 188.589844 71.871094 188.589844 C 73.082031 188.589844 74.066406 189.574219 74.066406 190.78125 C 74.066406 191.992188 73.082031 192.976562 71.871094 192.976562 Z M 71.871094 186.398438 C 70.664062 186.398438 69.679688 185.417969 69.679688 184.207031 C 69.679688 182.996094 70.664062 182.015625 71.871094 182.015625 C 73.082031 182.015625 74.066406 182.996094 74.066406 184.207031 C 74.066406 185.417969 73.082031 186.398438 71.871094 186.398438 Z M 71.871094 186.398438 " fill-opacity="1" fill-rule="nonzero"/><g clip-path="url(#45a0e81301)"><path fill="#ffffff" d="M 306.644531 175.4375 C 313.292969 175.4375 318.703125 180.847656 318.703125 187.496094 C 318.703125 194.144531 313.292969 199.550781 306.644531 199.550781 C 299.996094 199.550781 294.589844 194.144531 294.589844 187.496094 C 294.589844 180.847656 299.996094 175.4375 306.644531 175.4375 M 306.644531 173.246094 C 298.777344 173.246094 292.394531 179.625 292.394531 187.496094 C 292.394531 195.363281 298.777344 201.746094 306.644531 201.746094 C 314.515625 201.746094 320.894531 195.363281 320.894531 187.496094 C 320.894531 179.625 314.515625 173.246094 306.644531 173.246094 Z M 306.644531 173.246094 " fill-opacity="1" fill-rule="nonzero"/></g><path fill="#ffffff" d="M 306.644531 176.753906 C 300.714844 176.753906 295.90625 181.5625 295.90625 187.496094 C 295.90625 193.425781 300.714844 198.234375 306.644531 198.234375 C 312.578125 198.234375 317.386719 193.425781 317.386719 187.496094 C 317.386719 181.5625 312.578125 176.753906 306.644531 176.753906 Z M 303.359375 192.976562 C 302.148438 192.976562 301.164062 191.992188 301.164062 190.78125 C 301.164062 189.574219 302.148438 188.589844 303.359375 188.589844 C 304.566406 188.589844 305.550781 189.574219 305.550781 190.78125 C 305.550781 191.992188 304.566406 192.976562 303.359375 192.976562 Z M 303.359375 186.398438 C 302.148438 186.398438 301.164062 185.417969 301.164062 184.207031 C 301.164062 182.996094 302.148438 182.015625 303.359375 182.015625 C 304.566406 182.015625 305.550781 182.996094 305.550781 184.207031 C 305.550781 185.417969 304.566406 186.398438 303.359375 186.398438 Z M 309.933594 192.976562 C 308.722656 192.976562 307.742188 191.992188 307.742188 190.78125 C 307.742188 189.574219 308.722656 188.589844 309.933594 188.589844 C 311.144531 188.589844 312.125 189.574219 312.125 190.78125 C 312.125 191.992188 311.144531 192.976562 309.933594 192.976562 Z M 309.933594 186.398438 C 308.722656 186.398438 307.742188 185.417969 307.742188 184.207031 C 307.742188 182.996094 308.722656 182.015625 309.933594 182.015625 C 311.144531 182.015625 312.125 182.996094 312.125 184.207031 C 312.125 185.417969 311.144531 186.398438 309.933594 186.398438 Z M 309.933594 186.398438 " fill-opacity="1" fill-rule="nonzero"/><path fill="#ffffff" d="M 113.078125 223.296875 C 114.148438 219.34375 116.671875 216.113281 120.246094 214.136719 L 149.316406 198.53125 L 178.371094 214.136719 C 181.960938 216.113281 184.46875 219.34375 185.539062 223.296875 Z M 181.960938 207.675781 L 153.074219 192.25 L 153.074219 191.179688 C 155.941406 190.09375 158.460938 187.949219 159.714844 185.261719 C 161.148438 182.214844 161.148438 178.804688 159.894531 175.753906 C 158.644531 172.886719 156.121094 170.367188 153.074219 169.476562 C 148.953125 168.222656 144.820312 168.933594 141.605469 171.800781 C 139.082031 173.957031 137.648438 177.371094 137.648438 180.960938 L 137.648438 181.128906 C 137.648438 182.394531 138.734375 183.46875 139.988281 183.46875 L 142.855469 183.46875 C 144.109375 183.46875 145.179688 182.394531 145.179688 181.128906 L 145.179688 180.417969 C 145.179688 179.164062 145.722656 178.078125 146.613281 177.1875 C 147.519531 176.464844 148.773438 176.117188 150.027344 176.464844 C 151.460938 176.824219 152.710938 177.898438 152.894531 179.347656 C 153.4375 181.851562 151.820312 183.828125 149.84375 184.175781 C 147.15625 184.902344 145.179688 187.238281 145.179688 189.925781 L 145.179688 192.25 L 116.308594 207.675781 C 109.488281 211.449219 105.003906 218.980469 105.003906 227.054688 C 105.003906 229.199219 106.617188 230.8125 108.777344 230.8125 L 189.855469 230.8125 C 192.011719 230.8125 193.613281 229.199219 193.613281 227.054688 C 193.613281 218.980469 189.128906 211.449219 181.960938 207.675781 " fill-opacity="1" fill-rule="nonzero"/><g clip-path="url(#f4d0cca35c)"><path fill="#ffffff" d="M 156.667969 147.410156 C 158.101562 149.023438 160.425781 149.207031 161.875 147.773438 L 168.859375 141.492188 L 176.046875 189.019531 C 176.390625 191 178.007812 192.25 179.984375 192.085938 L 203.664062 189.925781 L 208.507812 160.148438 C 209.398438 155.121094 213.535156 151.53125 218.5625 151.53125 C 219.269531 151.53125 219.996094 151.53125 220.703125 151.710938 L 227.34375 153.144531 L 226.800781 136.285156 L 234.875 141.3125 C 236.671875 142.382812 238.996094 141.855469 239.886719 140.058594 L 247.796875 125.886719 C 248.6875 124.273438 248.324219 122.296875 246.890625 121.222656 L 229.308594 107.050781 C 225.367188 103.824219 220.34375 102.390625 215.152344 102.75 L 207.605469 103.460938 C 207.257812 103.460938 206.894531 103.824219 206.894531 104.183594 C 206.003906 108.847656 201.324219 112.605469 195.226562 113.148438 C 189.128906 113.679688 183.921875 110.8125 182.144531 106.507812 C 181.960938 106.148438 181.597656 105.964844 181.238281 105.964844 L 173.707031 106.691406 C 169.042969 106.871094 164.199219 109.195312 160.96875 113.148438 L 146.265625 130.371094 C 145.179688 131.625 145.179688 133.601562 146.265625 135.035156 L 156.667969 147.410156 " fill-opacity="1" fill-rule="nonzero"/></g><g clip-path="url(#a606bc035a)"><path fill="#ffffff" d="M 267.882812 168.933594 L 219.269531 158.714844 C 217.65625 158.351562 216.222656 159.425781 215.859375 161.039062 L 199.726562 261.316406 C 199.542969 262.75 200.433594 264.183594 201.867188 264.542969 L 213.171875 266.871094 C 214.605469 267.230469 216.039062 266.339844 216.402344 264.90625 L 237.214844 191.707031 C 237.382812 191.359375 237.925781 191.359375 237.925781 191.902344 L 227.527344 267.230469 C 227.34375 268.664062 228.234375 270.097656 229.667969 270.28125 L 240.972656 272.621094 C 242.40625 272.964844 243.839844 272.074219 244.203125 270.640625 L 270.042969 172.34375 C 270.390625 170.730469 269.316406 169.292969 267.882812 168.933594 " fill-opacity="1" fill-rule="nonzero"/></g><g fill="#ffffff" fill-opacity="1"><g transform="translate(93.449997, 126.592679)"><g><path d="M 7.183594 -8.34375 C 11.257812 -13.511719 10.785156 -17.160156 6.808594 -20.796875 L 4.085938 -17.347656 C 6.234375 -15.367188 6.621094 -13.28125 4.402344 -10.46875 C 2.097656 -7.542969 -0.53125 -7.691406 -3.761719 -10.238281 C -7.039062 -12.820312 -7.726562 -15.429688 -5.402344 -18.375 C -3.269531 -21.082031 -1.226562 -21.144531 1.085938 -19.640625 L 3.789062 -23.070312 C -0.472656 -25.894531 -4.195312 -25.515625 -8.164062 -20.480469 C -12.496094 -14.984375 -10.5625 -9.933594 -6.519531 -6.742188 C -2.40625 -3.503906 2.851562 -2.847656 7.183594 -8.34375 Z M 7.183594 -8.34375 "/></g></g></g><g fill="#ffffff" fill-opacity="1"><g transform="translate(106.291811, 110.564859)"><g><path d="M 2.023438 -6.5 L -8.34375 -17.660156 L -11.480469 -14.742188 L 1.191406 -1.105469 L 10.707031 -9.945312 L 8.398438 -12.425781 Z M 2.023438 -6.5 "/></g></g></g><g fill="#ffffff" fill-opacity="1"><g transform="translate(116.331964, 100.743458)"><g><path d="M 9.464844 -5.792969 C 15.386719 -9.777344 15 -15.117188 12.140625 -19.367188 C 9.328125 -23.546875 4.464844 -26.011719 -1.457031 -22.027344 C -7.382812 -18.042969 -6.96875 -12.617188 -4.140625 -8.414062 C -1.265625 -4.140625 3.539062 -1.808594 9.464844 -5.792969 Z M -0.449219 -10.898438 C -2.746094 -14.3125 -2.914062 -16.867188 0.480469 -19.148438 C 3.871094 -21.429688 6.171875 -20.3125 8.46875 -16.898438 C 10.734375 -13.53125 10.902344 -10.976562 7.511719 -8.695312 C 4.121094 -6.414062 1.816406 -7.53125 -0.449219 -10.898438 Z M -0.449219 -10.898438 "/></g></g></g><g fill="#ffffff" fill-opacity="1"><g transform="translate(133.716968, 89.116256)"><g><path d="M 8.28125 -24.128906 L -6.785156 -17.359375 L -5.410156 -14.296875 L 0.183594 -16.808594 L 6.433594 -2.890625 L 10.316406 -4.632812 L 4.066406 -18.550781 L 9.65625 -21.0625 Z M 8.28125 -24.128906 "/></g></g></g><g fill="#ffffff" fill-opacity="1"><g transform="translate(149.344075, 81.910077)"><g><path d="M 9.113281 -21.691406 L 11.03125 -14.496094 L 2.78125 -12.296875 L 0.863281 -19.496094 L -3.21875 -18.40625 L 1.570312 -0.417969 L 5.652344 -1.503906 L 3.636719 -9.078125 L 11.886719 -11.277344 L 13.90625 -3.703125 L 18.015625 -4.796875 L 13.226562 -22.785156 Z M 9.113281 -21.691406 "/></g></g></g><g fill="#ffffff" fill-opacity="1"><g transform="translate(167.79075, 77.006525)"><g><path d="M 5.507812 -3.960938 L 5.050781 -8.472656 L 14.519531 -9.433594 L 14.203125 -12.578125 L 4.730469 -11.621094 L 4.3125 -15.769531 L 14.617188 -16.816406 L 14.277344 -20.15625 L -0.261719 -18.683594 L 1.617188 -0.164062 L 16.238281 -1.644531 L 15.894531 -5.015625 Z M 5.507812 -3.960938 "/></g></g></g><g fill="#ffffff" fill-opacity="1"><g transform="translate(184.315505, 75.210456)"><g><path d="M 1.410156 -6.066406 C 1.371094 -2.675781 3.300781 0.648438 9.425781 0.964844 C 15.238281 1.269531 17.628906 -0.988281 17.816406 -4.652344 C 17.984375 -7.894531 16.179688 -9.78125 12.425781 -10.398438 L 8.566406 -11.074219 C 7.035156 -11.324219 6.433594 -12.167969 6.492188 -13.257812 C 6.566406 -14.710938 7.816406 -15.570312 10.082031 -15.453125 C 12.542969 -15.324219 13.714844 -14.144531 13.847656 -12.398438 L 18.011719 -12.183594 C 17.960938 -15.492188 15.808594 -18.296875 10.246094 -18.585938 C 5.015625 -18.855469 2.375 -16.582031 2.203125 -13.226562 C 2.042969 -10.152344 3.792969 -8.242188 7.070312 -7.675781 L 11.152344 -6.933594 C 12.789062 -6.625 13.589844 -5.851562 13.519531 -4.457031 C 13.441406 -2.972656 12.46875 -2.042969 9.644531 -2.191406 C 6.710938 -2.34375 5.554688 -3.859375 5.546875 -5.851562 Z M 1.410156 -6.066406 "/></g></g></g><g fill="#ffffff" fill-opacity="1"><g transform="translate(202.1665, 76.40908)"><g/></g></g><g fill="#ffffff" fill-opacity="1"><g transform="translate(208.448586, 77.06184)"><g><path d="M 2.679688 -5.621094 C 1.914062 -2.320312 3.085938 1.34375 8.996094 2.96875 C 14.613281 4.511719 17.429688 2.816406 18.402344 -0.71875 C 19.261719 -3.847656 17.902344 -6.082031 14.367188 -7.488281 L 10.742188 -8.980469 C 9.304688 -9.546875 8.898438 -10.503906 9.1875 -11.554688 C 9.574219 -12.957031 10.976562 -13.53125 13.164062 -12.929688 C 15.539062 -12.277344 16.429688 -10.871094 16.1875 -9.136719 L 20.207031 -8.03125 C 20.867188 -11.277344 19.367188 -14.476562 13.996094 -15.953125 C 8.949219 -17.339844 5.878906 -15.6875 4.988281 -12.449219 C 4.171875 -9.476562 5.472656 -7.234375 8.554688 -5.980469 L 12.378906 -4.375 C 13.914062 -3.722656 14.53125 -2.796875 14.160156 -1.449219 C 13.765625 -0.0195312 12.617188 0.679688 9.890625 -0.0664062 C 7.054688 -0.847656 6.253906 -2.578125 6.671875 -4.523438 Z M 2.679688 -5.621094 "/></g></g></g><g fill="#ffffff" fill-opacity="1"><g transform="translate(225.418911, 81.650086)"><g><path d="M 23.554688 -9.796875 L 8.5 -16.589844 L 7.117188 -13.527344 L 12.703125 -11.003906 L 6.429688 2.902344 L 10.308594 4.652344 L 16.582031 -9.253906 L 22.171875 -6.734375 Z M 23.554688 -9.796875 "/></g></g></g><g fill="#ffffff" fill-opacity="1"><g transform="translate(241.171589, 88.469064)"><g><path d="M 8.921875 6.597656 C 14.835938 10.589844 19.640625 8.226562 22.507812 3.980469 C 25.328125 -0.195312 25.785156 -5.625 19.871094 -9.621094 C 13.953125 -13.613281 9.078125 -11.199219 6.246094 -6.996094 C 3.363281 -2.730469 3.003906 2.601562 8.921875 6.597656 Z M 9.933594 -4.507812 C 12.234375 -7.917969 14.539062 -9.03125 17.929688 -6.742188 C 21.316406 -4.457031 21.144531 -1.902344 18.84375 1.507812 C 16.570312 4.871094 14.265625 5.984375 10.878906 3.695312 C 7.492188 1.410156 7.660156 -1.144531 9.933594 -4.507812 Z M 9.933594 -4.507812 "/></g></g></g><g fill="#ffffff" fill-opacity="1"><g transform="translate(258.476467, 100.193176)"><g><path d="M 15.46875 8.589844 C 17.332031 6.652344 16.925781 4.9375 15.882812 3.277344 C 17.804688 4.464844 20.238281 4.359375 22.0625 2.464844 C 24.160156 0.285156 24.121094 -2.625 21.15625 -5.476562 L 14.078125 -12.289062 L 1.171875 1.125 L 4.257812 4.09375 L 9.246094 -1.089844 L 12.007812 1.570312 C 13.339844 2.851562 13.625 4.367188 12.171875 5.882812 L 11.492188 6.589844 C 10.425781 7.699219 9.828125 8.519531 9.523438 9.160156 L 12.589844 12.109375 C 13.066406 11.328125 13.53125 10.605469 14.597656 9.496094 Z M 14.667969 -0.105469 L 11.359375 -3.289062 L 14.871094 -6.941406 L 18.179688 -3.757812 C 19.511719 -2.476562 19.515625 -1.308594 18.429688 -0.179688 C 17.226562 1.074219 16.058594 1.234375 14.667969 -0.105469 Z M 14.667969 -0.105469 "/></g></g></g><g fill="#ffffff" fill-opacity="1"><g transform="translate(271.323361, 112.49109)"><g><path d="M 6.257812 2.625 L 9.863281 -0.125 L 15.632812 7.445312 L 18.148438 5.527344 L 12.378906 -2.042969 L 15.699219 -4.570312 L 21.976562 3.667969 L 24.648438 1.632812 L 15.792969 -9.992188 L 0.984375 1.292969 L 9.890625 12.980469 L 12.585938 10.929688 Z M 6.257812 2.625 "/></g></g></g><g fill="#ffffff" fill-opacity="1"><g transform="translate(79.435565, 265.490463)"><g><path d="M 7.105469 8.414062 C 11.5625 13.25 15.242188 13.363281 19.460938 10.007812 L 16.484375 6.777344 C 14.191406 8.585938 12.066406 8.636719 9.640625 6 C 7.117188 3.261719 7.679688 0.691406 10.703125 -2.097656 C 13.773438 -4.925781 16.457031 -5.191406 19 -2.433594 C 21.332031 0.101562 21.070312 2.128906 19.222656 4.175781 L 22.183594 7.386719 C 25.644531 3.625 25.859375 -0.109375 21.515625 -4.824219 C 16.773438 -9.972656 11.476562 -8.859375 7.6875 -5.371094 C 3.839844 -1.824219 2.363281 3.265625 7.105469 8.414062 Z M 7.105469 8.414062 "/></g></g></g><g fill="#ffffff" fill-opacity="1"><g transform="translate(95.062775, 282.005033)"><g><path d="M 6.71875 1.113281 L 16.351562 -10.679688 L 13.035156 -13.390625 L 1.257812 1.027344 L 11.316406 9.246094 L 13.460938 6.621094 Z M 6.71875 1.113281 "/></g></g></g><g fill="#ffffff" fill-opacity="1"><g transform="translate(107.546144, 292.424059)"><g><path d="M 9.253906 6.125 C 15.367188 9.804688 20.042969 7.195312 22.683594 2.804688 C 25.285156 -1.511719 25.457031 -6.960938 19.34375 -10.640625 C 13.226562 -14.320312 8.484375 -11.652344 5.871094 -7.3125 C 3.214844 -2.898438 3.136719 2.441406 9.253906 6.125 Z M 9.683594 -5.019531 C 11.808594 -8.542969 14.050781 -9.773438 17.554688 -7.667969 C 21.054688 -5.558594 21.015625 -3 18.894531 0.527344 C 16.800781 4.003906 14.558594 5.234375 11.058594 3.125 C 7.554688 1.019531 7.59375 -1.539062 9.683594 -5.019531 Z M 9.683594 -5.019531 "/></g></g></g><g fill="#ffffff" fill-opacity="1"><g transform="translate(127.656957, 304.248654)"><g><path d="M 23.167969 -10.671875 L 7.871094 -16.894531 L 6.605469 -13.785156 L 12.28125 -11.472656 L 6.535156 2.65625 L 10.476562 4.261719 L 16.222656 -9.871094 L 21.902344 -7.5625 Z M 23.167969 -10.671875 "/></g></g></g><g fill="#ffffff" fill-opacity="1"><g transform="translate(145.731718, 311.583452)"><g><path d="M 18.371094 -14.699219 L 16.617188 -7.460938 L 8.320312 -9.476562 L 10.074219 -16.710938 L 5.96875 -17.707031 L 1.578125 0.382812 L 5.6875 1.378906 L 7.535156 -6.238281 L 15.832031 -4.222656 L 13.984375 3.394531 L 18.117188 4.398438 L 22.507812 -13.695312 Z M 18.371094 -14.699219 "/></g></g></g><g fill="#ffffff" fill-opacity="1"><g transform="translate(166.52041, 316.451209)"><g><path d="M 6.164062 -2.832031 L 6.582031 -7.347656 L 16.0625 -6.46875 L 16.351562 -9.617188 L 6.875 -10.496094 L 7.261719 -14.648438 L 17.574219 -13.695312 L 17.882812 -17.039062 L 3.332031 -18.386719 L 1.617188 0.148438 L 16.25 1.503906 L 16.5625 -1.867188 Z M 6.164062 -2.832031 "/></g></g></g><g fill="#ffffff" fill-opacity="1"><g transform="translate(185.236399, 318.143707)"><g><path d="M 0.800781 -6.175781 C 1.101562 -2.796875 3.351562 0.316406 9.472656 0.0273438 C 15.289062 -0.25 17.441406 -2.734375 17.269531 -6.398438 C 17.113281 -9.640625 15.125 -11.339844 11.332031 -11.582031 L 7.421875 -11.871094 C 5.875 -11.964844 5.195312 -12.746094 5.144531 -13.835938 C 5.074219 -15.289062 6.234375 -16.269531 8.496094 -16.378906 C 10.957031 -16.496094 12.242188 -15.433594 12.546875 -13.710938 L 16.714844 -13.910156 C 16.332031 -17.199219 13.914062 -19.773438 8.347656 -19.511719 C 3.121094 -19.261719 0.71875 -16.738281 0.878906 -13.382812 C 1.023438 -10.304688 2.957031 -8.574219 6.273438 -8.339844 L 10.410156 -8.003906 C 12.070312 -7.859375 12.941406 -7.171875 13.007812 -5.773438 C 13.078125 -4.292969 12.203125 -3.269531 9.378906 -3.136719 C 6.445312 -2.996094 5.144531 -4.390625 4.9375 -6.371094 Z M 0.800781 -6.175781 "/></g></g></g><g fill="#ffffff" fill-opacity="1"><g transform="translate(204.632773, 316.897247)"><g/></g></g><g fill="#ffffff" fill-opacity="1"><g transform="translate(212.430129, 315.999918)"><g><path d="M -0.429688 -6.210938 C 0.527344 -2.960938 3.347656 -0.347656 9.292969 -1.835938 C 14.941406 -3.253906 16.5625 -6.113281 15.671875 -9.667969 C 14.882812 -12.820312 12.601562 -14.09375 8.832031 -13.582031 L 4.941406 -13.097656 C 3.410156 -12.886719 2.585938 -13.519531 2.320312 -14.578125 C 1.96875 -15.988281 2.910156 -17.179688 5.109375 -17.730469 C 7.5 -18.328125 8.964844 -17.542969 9.605469 -15.914062 L 13.652344 -16.925781 C 12.632812 -20.074219 9.753906 -22.125 4.347656 -20.769531 C -0.730469 -19.5 -2.589844 -16.550781 -1.773438 -13.292969 C -1.023438 -10.304688 1.210938 -8.988281 4.511719 -9.414062 L 8.632812 -9.898438 C 10.289062 -10.082031 11.277344 -9.578125 11.621094 -8.222656 C 11.980469 -6.78125 11.320312 -5.605469 8.578125 -4.917969 C 5.726562 -4.207031 4.179688 -5.316406 3.589844 -7.21875 Z M -0.429688 -6.210938 "/></g></g></g><g fill="#ffffff" fill-opacity="1"><g transform="translate(231.603922, 311.104377)"><g><path d="M 9.105469 -23.828125 L -6.183594 -17.582031 L -4.914062 -14.472656 L 0.761719 -16.792969 L 6.53125 -2.667969 L 10.46875 -4.277344 L 4.699219 -18.398438 L 10.375 -20.71875 Z M 9.105469 -23.828125 "/></g></g></g><g fill="#ffffff" fill-opacity="1"><g transform="translate(249.742871, 303.752212)"><g><path d="M 9.734375 -5.324219 C 15.84375 -9.015625 15.71875 -14.367188 13.070312 -18.75 C 10.464844 -23.066406 5.730469 -25.761719 -0.378906 -22.074219 C -6.492188 -18.382812 -6.347656 -12.945312 -3.726562 -8.605469 C -1.0625 -4.199219 3.625 -1.632812 9.734375 -5.324219 Z M 0.0820312 -10.90625 C -2.042969 -14.429688 -2.085938 -16.988281 1.414062 -19.101562 C 4.914062 -21.214844 7.15625 -19.988281 9.285156 -16.464844 C 11.382812 -12.992188 11.425781 -10.433594 7.925781 -8.320312 C 4.425781 -6.207031 2.183594 -7.433594 0.0820312 -10.90625 Z M 0.0820312 -10.90625 "/></g></g></g><g fill="#ffffff" fill-opacity="1"><g transform="translate(269.611755, 291.490582)"><g><path d="M 10.148438 -14.496094 C 8.414062 -16.550781 6.667969 -16.320312 4.90625 -15.457031 C 6.289062 -17.246094 6.433594 -19.675781 4.738281 -21.6875 C 2.789062 -24 -0.109375 -24.265625 -3.253906 -21.609375 L -10.765625 -15.273438 L 1.242188 -1.046875 L 4.515625 -3.808594 L -0.125 -9.308594 L 2.804688 -11.78125 C 4.21875 -12.972656 5.757812 -13.101562 7.113281 -11.496094 L 7.742188 -10.746094 C 8.738281 -9.570312 9.492188 -8.890625 10.097656 -8.519531 L 13.351562 -11.265625 C 12.621094 -11.824219 11.953125 -12.355469 10.960938 -13.535156 Z M 1.414062 -14.601562 L -2.09375 -11.640625 L -5.359375 -15.511719 L -1.851562 -18.472656 C -0.441406 -19.664062 0.722656 -19.546875 1.734375 -18.347656 C 2.851562 -17.019531 2.890625 -15.847656 1.414062 -14.601562 Z M 1.414062 -14.601562 "/></g></g></g><g fill="#ffffff" fill-opacity="1"><g transform="translate(284.799572, 278.527055)"><g><path d="M 1.390625 -6.640625 L -1.988281 -9.664062 L 4.351562 -16.757812 L 1.996094 -18.867188 L -4.347656 -11.769531 L -7.457031 -14.550781 L -0.554688 -22.273438 L -3.0625 -24.511719 L -12.796875 -13.617188 L 1.082031 -1.210938 L 10.875 -12.167969 L 8.351562 -14.425781 Z M 1.390625 -6.640625 "/></g></g></g></svg>